PathFileType	4	(X/Y/Z)	s10c0102.trc
DataRate	CameraRate	NumFrames	NumMarkers	Units	OrigDataRate	OrigDataStartFrame	OrigNumFrames
200	200	4	50	mm	200	500	2000
Frame#	Time	racr			lacr			c7			jug			rlel			rdr			llel			ldr			s2			lic			ric			lasi			rasi			rpsi			lpsi			rgt			lgt			rth1			rth2			rth3			rth4			rlfc			rmfc			rsh1			rsh2			rsh3			rsh4			rlmal			rmmal			rcal			rtoe			rmt5			lth1			lth2			lth4			lth3			llfc			lmfc			llmal			lmmal			lcal			lmt5			lsh1			lsh2			lsh3			lsh4			ltoe			SBIKE			LBIKE			RBIKE			
		X1	Y1	Z1	X2	Y2	Z2	X3	Y3	Z3	X4	Y4	Z4	X5	Y5	Z5	X6	Y6	Z6	X7	Y7	Z7	X8	Y8	Z8	X9	Y9	Z9	X10	Y10	Z10	X11	Y11	Z11	X12	Y12	Z12	X13	Y13	Z13	X14	Y14	Z14	X15	Y15	Z15	X16	Y16	Z16	X17	Y17	Z17	X18	Y18	Z18	X19	Y19	Z19	X20	Y20	Z20	X21	Y21	Z21	X22	Y22	Z22	X23	Y23	Z23	X24	Y24	Z24	X25	Y25	Z25	X26	Y26	Z26	X27	Y27	Z27	X28	Y28	Z28	X29	Y29	Z29	X30	Y30	Z30	X31	Y31	Z31	X32	Y32	Z32	X33	Y33	Z33	X34	Y34	Z34	X35	Y35	Z35	X36	Y36	Z36	X37	Y37	Z37	X38	Y38	Z38	X39	Y39	Z39	X40	Y40	Z40	X41	Y41	Z41	X42	Y42	Z42	X43	Y43	Z43	X44	Y44	Z44	X45	Y45	Z45	X46	Y46	Z46	X47	Y47	Z47	X48	Y48	Z48	X49	Y49	Z49	X50	Y50	Z50	
500	2.5000	435.926231	1266.655662	-46.808732	479.856040	1264.935016	-343.797892	422.700237	1313.620006	-199.830401	411.481430	1167.629257	-197.503867	479.217268	1017.598720	35.460759	641.635530	878.377456	-46.908574	484.013709	1022.657681	-489.886047	639.628666	885.237997	-415.207935	-99.256282	1119.445939	-237.304779	71.547685	1125.711060	-393.285352	74.279150	1151.245130	-101.021863	95.784295	1039.690594	-357.118965	72.465892	1069.269234	-106.413405	-59.321025	1182.532108	-188.547120	-45.049897	1179.827915	-301.043700	-25.813316	1054.122673	-35.493748	-32.812412	988.983121	-417.462888	88.221788	984.655433	-9.483618	176.345421	980.786996	-21.517699	248.802026	936.745220	-15.494683	184.443826	1014.007772	-36.710870	349.887735	892.749930	-32.945183	346.038535	873.706079	-156.337568	268.732473	811.460927	-7.163908	228.093129	735.044287	-27.969059	156.321212	687.759074	-35.128111	251.036373	720.922294	-54.971468	81.901725	606.752623	-58.296695	113.163446	616.575310	-137.064820	24.429637	606.865150	-106.151102	238.617726	490.306414	-104.260085	153.591847	502.106956	-43.316224	15.515532	873.870321	-433.226395	69.577061	806.488227	-424.085550	102.993559	821.796235	-416.955860	81.138192	718.724647	-412.128462	127.712824	623.024992	-390.532758	130.638521	615.280065	-273.840943	82.327412	256.104598	-383.192036	102.301938	256.468215	-306.186810	32.884085	243.766529	-340.956925	179.609269	141.639873	-403.176577	82.238342	508.559487	-417.371951	107.152807	426.238195	-406.700186	85.543868	339.900860	-399.810090	139.739113	429.419227	-386.278478	267.832618	144.026422	-347.186676	-217.934175	833.395498	-214.469512	-103.971521	80.408125	-418.394213	-103.939093	80.509944	-18.379633	
501	2.5050	436.913487	1267.489461	-45.739473	480.284387	1266.742298	-342.815238	423.237887	1314.727654	-198.746621	411.999936	1168.762016	-196.392256	479.359313	1017.935041	34.999430	641.543792	878.453149	-47.041964	485.386610	1024.648696	-489.131060	640.004458	885.223992	-415.236359	-98.798610	1120.562788	-237.179469	72.658475	1127.070698	-393.045845	74.605108	1152.603023	-100.404723	97.424611	1041.318089	-357.646709	72.904232	1070.931377	-106.247079	-58.945508	1183.809565	-188.316574	-44.373079	1180.918340	-300.897320	-24.970814	1055.503481	-35.082281	-32.049537	989.828085	-416.959395	90.201304	986.247363	-9.986033	178.139262	982.382345	-22.817533	250.618858	938.420431	-17.525083	186.165133	1015.804626	-37.690488	351.863630	895.565218	-35.461601	347.029316	876.406880	-159.510743	271.466509	813.378940	-9.348460	231.571038	736.421217	-29.610839	160.254867	688.218948	-36.206607	254.629728	722.439632	-56.527060	86.629749	605.882435	-58.513872	117.103848	616.193322	-137.424428	28.542812	604.406654	-106.034117	245.444243	493.104938	-104.357150	160.239516	502.860512	-43.262253	16.082595	874.807163	-432.871727	70.037525	807.314093	-423.813136	103.469609	822.505965	-416.835075	81.447233	719.495325	-411.801573	127.836890	623.820032	-390.767446	132.029313	616.270780	-273.668105	77.729690	257.680351	-383.111476	97.794459	257.568008	-306.293605	28.130540	246.369162	-340.601023	172.571700	141.183188	-403.012596	80.826289	509.981760	-417.040763	104.653355	427.447575	-406.603077	81.904446	341.384071	-399.509953	137.408335	430.039401	-386.367481	260.811738	141.629322	-347.100640	-217.965564	833.408142	-214.446886	-103.982193	80.431307	-418.402805	-103.943989	80.506248	-18.370942	
502	2.5100	437.933931	1268.314305	-44.683915	480.544150	1268.529445	-341.907907	423.729215	1315.803958	-197.575827	412.369309	1169.998017	-195.251343	479.377374	1018.363197	34.666659	641.474028	878.535183	-47.215995	486.557546	1026.548625	-488.149772	640.350933	885.148552	-415.256039	-98.629263	1122.095644	-238.145975	73.482615	1128.352144	-392.594342	74.777947	1154.085157	-99.718172	98.066439	1042.681420	-357.047118	73.196469	1072.644702	-105.914085	-58.735923	1184.803401	-188.102073	-43.520072	1182.106425	-300.905393	-24.314905	1056.840692	-34.559502	-31.471269	990.681375	-416.447507	91.765275	987.549078	-10.447054	179.651024	983.829734	-24.023459	252.156123	939.652944	-19.480761	187.728224	1017.435073	-38.522310	353.461953	897.873458	-38.006526	347.577049	878.449059	-162.155592	273.773587	814.680076	-11.667749	234.685921	737.295877	-31.373230	163.935395	688.237232	-37.324194	257.874526	723.393795	-58.180692	91.280036	604.507124	-58.846392	120.990560	615.240654	-137.921049	32.670466	601.574377	-105.976191	252.301414	495.712595	-104.418335	166.906036	503.254459	-43.254101	16.833278	875.756745	-432.405791	70.731509	808.247525	-423.281216	104.189303	823.546857	-416.582501	82.264039	720.493242	-411.317882	128.759721	624.831531	-390.876527	134.015692	617.370193	-273.653068	73.324023	259.568088	-382.962043	93.481390	258.934150	-306.335106	23.642940	249.354907	-340.203282	165.555189	141.054892	-402.852034	79.997293	511.740092	-416.738969	102.615665	428.897239	-406.393109	78.635122	343.088520	-399.107188	135.532800	430.983450	-386.478171	253.726115	139.316245	-346.997637	-217.971621	833.416649	-214.381265	-103.990669	80.432827	-418.390183	-103.955273	80.528154	-18.358167	
503	2.5150	438.923687	1269.069412	-43.678471	480.674006	1270.347797	-341.093041	424.112012	1316.926202	-196.508483	412.585263	1171.313374	-194.340463	479.305072	1018.513914	34.245575	641.381684	878.632000	-47.386339	487.553098	1028.304669	-486.962295	640.649348	885.091723	-415.257732	-98.333887	1123.162176	-237.872455	73.396670	1129.405152	-391.028179	74.863240	1155.614261	-98.767994	98.634929	1044.063257	-356.502138	73.359044	1074.288473	-105.261252	-58.615177	1186.123326	-187.797810	-43.028837	1183.287569	-300.791388	-23.950549	1058.018156	-34.217610	-30.856584	991.517818	-415.936143	93.116509	988.540683	-10.924703	180.999207	984.798859	-25.091047	253.437299	940.577876	-21.385981	188.987367	1018.596989	-39.342792	354.530487	899.729220	-40.287103	347.748082	880.243216	-164.967904	275.668593	815.805942	-14.232654	237.409694	737.561931	-33.182178	167.301830	687.750311	-38.544403	260.751308	723.925198	-59.727410	95.848816	602.553592	-59.112436	124.772845	613.683342	-138.387782	36.697382	598.001218	-105.969153	259.116628	498.056256	-104.515062	173.552558	503.279397	-43.223343	17.657259	876.660867	-431.838714	72.449187	809.784642	-423.434405	105.135991	824.598622	-416.152177	83.523332	721.692574	-410.639497	130.315341	625.990292	-390.854365	136.546426	618.763479	-273.738547	69.051650	262.090084	-383.110097	89.212722	260.977983	-306.653075	19.263222	252.855795	-339.808223	158.491491	141.229662	-402.717052	79.755349	513.734062	-416.443169	101.048424	430.511387	-406.223788	75.681710	345.089415	-398.850866	134.102938	432.043669	-386.436778	246.613498	137.181340	-346.823188	-217.994022	833.414457	-214.340614	-103.976691	80.443039	-418.391254	-103.942578	80.521968	-18.360052	
